<svg width="596" height="490" viewBox="0 0 596 490" fill="none" xmlns="http://www.w3.org/2000/svg">
<path d="M250.808 425.423L39.9864 424.394L19.0386 375.246L93.1106 369.868L80.2006 315.982L226.706 296.987L86.4154 248.203L98.8079 245.258L324.393 282.071L311.97 366.165L294.212 412.379L250.808 425.423Z" fill="black"/>
<path d="M43.22 403.81C43.22 403.81 56.1545 401.739 63.9153 410.883C63.9153 410.883 58.2241 415.368 45.9793 409.157L43.22 403.81Z" fill="black"/>
<path d="M41.8649 403.606C41.8649 403.606 33.6114 413.766 37.6766 425.078C37.6766 425.078 44.4026 422.385 45.1355 408.671L41.8649 403.606Z" fill="black"/>
<path d="M34.4491 386.903C34.4491 386.903 39.6229 377.409 60.3182 390.698C60.3182 390.698 57.5589 397.081 48.4184 396.564C39.278 396.046 36.8636 391.906 34.4491 386.903Z" fill="black"/>
<path d="M33.1126 386.219C33.1126 386.219 22.3769 384.987 21.3359 409.57C21.3359 409.57 28.142 410.981 32.977 403.206C37.8121 395.43 35.8288 391.068 33.1126 386.219Z" fill="black"/>
<path d="M371.087 386.262C371.087 386.262 357.124 403.31 368.21 429.082L256.727 477.447L246.028 479.69L241.1 458.126L244.396 430.912V416.039L371.087 386.262Z" fill="#D5D6DB"/>
<path d="M19.0386 375.246L173.342 347.108L377.801 379.689L250.808 425.423L19.0386 375.246Z" fill="black"/>
<path d="M19.0386 375.246L173.342 347.108L377.801 379.689L250.808 425.423L19.0386 375.246Z" fill="black"/>
<path d="M19.0385 375.24C19.0385 375.24 4.60719 402.589 21.2374 427.85L250.056 477.447C250.056 477.447 235.853 455.662 250.789 425.423L19.0385 375.24Z" fill="black"/>
<path opacity="0.1" d="M19.0385 375.24C19.0385 375.24 4.60719 402.589 21.2374 427.85L250.056 477.447C250.056 477.447 235.853 455.662 250.789 425.423L19.0385 375.24Z" fill="black"/>
<path opacity="0.1" d="M25.8569 384.722C25.8569 384.722 17.6096 404.734 25.8569 417.684V384.722Z" fill="black"/>
<path d="M250.056 477.448L377.801 422.921C377.801 422.921 384.945 424.462 380.326 429.699C375.706 434.936 252.52 482.685 252.52 482.685L21.2374 427.85L250.056 477.448Z" fill="black"/>
<path opacity="0.1" d="M250.056 477.448L377.801 422.921C377.801 422.921 384.945 424.462 380.326 429.699C375.706 434.936 252.52 482.685 252.52 482.685L21.2374 427.85L250.056 477.448Z" fill="black"/>
<path opacity="0.1" d="M239.585 430.931C239.585 430.931 227.267 445.718 239.585 467.898V430.931Z" fill="black"/>
<path opacity="0.1" d="M299.224 430.681L243.97 449.121L244.165 449.705L299.419 431.265L299.224 430.681Z" fill="black"/>
<path opacity="0.1" d="M310.292 428.846L243.952 454.08L244.171 454.656L310.51 429.422L310.292 428.846Z" fill="black"/>
<path opacity="0.1" d="M320.456 428.757L244.322 459.929L244.556 460.499L320.689 429.328L320.456 428.757Z" fill="black"/>
<path opacity="0.1" d="M331.508 426.088L245.211 465.082L245.465 465.644L331.762 426.65L331.508 426.088Z" fill="black"/>
<path opacity="0.1" d="M340.794 426.101L245.894 467.594L246.141 468.158L341.04 426.665L340.794 426.101Z" fill="black"/>
<path opacity="0.1" d="M361.104 422.651L247.325 471.807L247.569 472.373L361.348 423.216L361.104 422.651Z" fill="black"/>
<path opacity="0.3" d="M76.3633 378.253L184.767 355.457L250.808 368.087L161.978 396.737L76.3633 378.253Z" fill="white"/>
<path d="M377.801 379.688C377.801 379.688 383.406 381.95 380.116 385.443C376.827 388.936 250.789 425.423 250.789 425.423L377.801 379.688Z" fill="black"/>
<path d="M432.243 327.005C432.243 327.005 418.286 344.046 429.372 369.825L317.889 418.19L307.19 420.445L302.263 398.881L305.607 371.673V356.781L432.243 327.005Z" fill="#D5D6DB"/>
<path d="M80.2006 315.982L234.498 287.85L438.963 320.431L311.97 366.165L80.2006 315.982Z" fill="#3A3768"/>
<path d="M80.1759 315.982C80.1759 315.982 65.7385 343.332 82.3687 368.592L311.187 418.19C311.187 418.19 296.99 396.385 311.945 366.159L80.1759 315.982Z" fill="#3A3768"/>
<path opacity="0.1" d="M80.1759 315.982C80.1759 315.982 65.7385 343.332 82.3687 368.592L311.187 418.19C311.187 418.19 296.99 396.385 311.945 366.159L239.585 350.491L80.1759 315.982Z" fill="black"/>
<path opacity="0.1" d="M87.0127 325.464C87.0127 325.464 78.7715 345.469 87.0127 358.426V325.464Z" fill="black"/>
<path d="M311.212 418.19L438.963 363.663C438.963 363.663 446.101 365.204 441.482 370.441C436.862 375.678 313.676 423.426 313.676 423.426L82.3933 368.592L311.212 418.19Z" fill="#3A3768"/>
<path opacity="0.1" d="M311.212 418.19L438.963 363.663C438.963 363.663 446.101 365.204 441.482 370.441C436.862 375.678 313.676 423.426 313.676 423.426L82.3933 368.592L311.212 418.19Z" fill="black"/>
<path opacity="0.1" d="M300.741 371.673C300.741 371.673 288.423 386.46 300.741 408.64V371.673Z" fill="black"/>
<path opacity="0.1" d="M360.385 371.429L305.13 389.869L305.325 390.454L360.58 372.014L360.385 371.429Z" fill="black"/>
<path opacity="0.1" d="M371.46 369.591L305.121 394.825L305.34 395.401L371.679 370.167L371.46 369.591Z" fill="black"/>
<path opacity="0.1" d="M381.615 369.495L305.482 400.666L305.715 401.236L381.848 370.065L381.615 369.495Z" fill="black"/>
<path opacity="0.1" d="M392.675 366.826L306.377 405.821L306.631 406.382L392.928 367.388L392.675 366.826Z" fill="black"/>
<path opacity="0.1" d="M401.951 366.831L307.052 408.324L307.299 408.889L402.198 367.396L401.951 366.831Z" fill="black"/>
<path opacity="0.1" d="M422.267 363.381L308.488 412.538L308.732 413.103L422.511 363.947L422.267 363.381Z" fill="black"/>
<path opacity="0.45" d="M137.525 318.995L245.929 296.199L311.97 308.829L223.14 337.478L137.525 318.995Z" fill="white"/>
<path d="M438.962 320.431C438.962 320.431 444.561 322.692 441.278 326.179C437.995 329.666 311.97 366.159 311.97 366.159L438.962 320.431Z" fill="#3A3768"/>
<path d="M438.033 259.213C438.033 259.213 424.069 289.816 435.156 315.588L323.672 350.398L312.998 352.659L308.071 331.095L311.366 303.882V288.99L438.033 259.213Z" fill="#D5D6DB"/>
<path d="M86.0088 248.197L240.312 220.059L444.777 252.639L317.778 298.374L86.0088 248.197Z" fill="black"/>
<path d="M86.0088 248.191C86.0088 248.191 71.5528 275.541 88.183 300.801L317.002 350.398C317.002 350.398 302.798 328.594 317.753 298.374L86.0088 248.191Z" fill="black"/>
<path opacity="0.1" d="M86.0088 248.191C86.0088 248.191 71.5528 275.541 88.183 300.801L317.002 350.398C317.002 350.398 302.798 328.594 317.753 298.374L86.0088 248.191Z" fill="black"/>
<path opacity="0.1" d="M92.8272 257.673C92.8272 257.673 84.5799 277.685 92.8272 290.635V257.673Z" fill="black"/>
<path d="M317.026 350.398L444.771 309.427C444.771 309.427 451.916 310.967 447.296 316.204C442.677 321.441 319.49 355.635 319.49 355.635L88.2076 300.801L317.026 350.398Z" fill="black"/>
<path opacity="0.1" d="M317.026 350.398L444.771 309.427C444.771 309.427 451.916 310.967 447.296 316.204C442.677 321.441 319.49 355.635 319.49 355.635L88.2076 300.801L317.026 350.398Z" fill="black"/>
<path opacity="0.1" d="M306.556 303.882C306.556 303.882 294.237 318.669 306.556 340.849V303.882Z" fill="black"/>
<path opacity="0.1" d="M366.201 303.637L310.946 322.077L311.141 322.661L366.396 304.222L366.201 303.637Z" fill="black"/>
<path opacity="0.1" d="M377.272 301.802L310.932 327.036L311.151 327.612L377.491 302.378L377.272 301.802Z" fill="black"/>
<path opacity="0.1" d="M387.421 301.708L311.288 332.88L311.521 333.45L387.654 302.278L387.421 301.708Z" fill="black"/>
<path opacity="0.1" d="M398.489 299.035L312.192 338.029L312.446 338.591L398.743 299.596L398.489 299.035Z" fill="black"/>
<path opacity="0.1" d="M407.769 299.045L312.87 340.538L313.116 341.103L408.016 299.61L407.769 299.045Z" fill="black"/>
<path opacity="0.1" d="M428.082 295.599L314.304 344.756L314.548 345.322L428.327 296.165L428.082 295.599Z" fill="black"/>
<path opacity="0.3" d="M143.334 251.204L251.738 228.408L317.778 241.038L228.948 269.687L143.334 251.204Z" fill="white"/>
<path d="M444.771 252.639C444.771 252.639 450.376 254.901 447.087 258.394C443.798 261.887 317.778 298.374 317.778 298.374L444.771 252.639Z" fill="black"/>
<path d="M173.798 65.6116C173.798 65.6116 150.392 64.2007 153.127 80.6263C153.127 80.6263 152.579 83.5282 155.209 84.8467C155.209 84.8467 155.252 83.6145 157.611 84.0396C158.453 84.1843 159.309 84.2257 160.161 84.1628C161.309 84.0842 162.401 83.6345 163.271 82.8813C163.271 82.8813 169.856 80.1581 172.418 69.3884C172.418 69.3884 174.315 67.041 174.266 66.4372L170.299 68.1254C170.299 68.1254 171.648 70.978 170.589 73.35C170.589 73.35 170.459 68.2301 169.695 68.3472C169.542 68.3472 167.644 69.3391 167.644 69.3391C167.644 69.3391 169.967 74.3112 168.211 77.9216C168.211 77.9216 168.876 71.7974 166.918 69.6965L164.134 71.323C164.134 71.323 166.85 76.4553 165.008 80.6448C165.008 80.6448 165.483 74.2188 163.548 71.7173L161.023 73.6889C161.023 73.6889 163.579 78.7472 162.021 82.2221C162.021 82.2221 161.818 74.7425 160.481 74.1756C160.481 74.1756 158.27 76.1225 157.937 76.9235C157.937 76.9235 159.687 80.6202 158.596 82.5363C158.596 82.5363 157.937 77.5519 157.365 77.5273C157.365 77.5273 155.166 80.8297 154.938 83.0723C155.044 80.9815 155.696 78.9551 156.829 77.1946C155.561 77.4344 154.392 78.0406 153.466 78.9382C153.466 78.9382 153.804 76.6031 157.377 76.3998C157.377 76.3998 159.194 73.8922 159.68 73.7443C159.68 73.7443 156.127 73.4424 153.977 74.3974C153.977 74.3974 155.874 72.1979 160.327 73.1652L162.791 71.132C162.791 71.132 158.122 70.5159 156.139 71.1998C156.139 71.1998 158.424 69.2529 163.462 70.6699L166.179 69.0495C166.179 69.0495 162.193 68.1931 159.822 68.5012C159.822 68.5012 162.323 67.1519 166.973 68.6121L168.907 67.7434C168.907 67.7434 165.994 67.1704 165.138 67.078C164.281 66.9856 164.238 66.7514 164.238 66.7514C166.087 66.4477 167.985 66.6609 169.72 67.3676C169.72 67.3676 173.878 65.8704 173.798 65.6116Z" fill="black"/>
<path opacity="0.1" d="M503.075 133.126C503.075 133.126 479.67 131.715 482.404 148.14C482.404 148.14 481.856 151.042 484.486 152.361C484.486 152.361 484.529 151.128 486.888 151.554C487.73 151.695 488.586 151.736 489.438 151.677C490.576 151.593 491.656 151.143 492.518 150.395C492.518 150.395 499.108 147.672 501.664 136.902C501.664 136.902 503.561 134.555 503.512 133.951L499.558 135.639C499.558 135.639 500.907 138.492 499.847 140.864C499.847 140.864 499.718 135.744 498.96 135.861C498.806 135.861 496.903 136.853 496.903 136.853C496.903 136.853 499.225 141.825 497.476 145.436C497.476 145.436 498.141 139.311 496.176 137.21L493.392 138.837C493.392 138.837 496.109 143.969 494.267 148.159C494.267 148.159 494.741 141.733 492.807 139.231L490.288 141.203C490.288 141.203 492.838 146.261 491.28 149.736C491.28 149.736 491.077 142.256 489.74 141.69C489.74 141.69 487.535 143.636 487.196 144.437C487.196 144.437 488.945 148.134 487.861 150.05C487.861 150.05 487.196 145.066 486.63 145.041C486.63 145.041 484.431 148.344 484.203 150.586C484.309 148.495 484.964 146.468 486.1 144.708C484.831 144.949 483.66 145.555 482.731 146.452C482.731 146.452 483.076 144.117 486.642 143.914C486.642 143.914 488.459 141.406 488.945 141.252C488.945 141.252 485.398 140.956 483.242 141.911C483.242 141.911 485.139 139.712 489.592 140.679L492.056 138.646C492.056 138.646 487.381 138.03 485.404 138.714C485.404 138.714 487.683 136.767 492.727 138.184L495.437 136.563C495.437 136.563 491.452 135.707 489.081 136.015C489.081 136.015 491.582 134.666 496.232 136.126L498.172 135.257C498.172 135.257 495.253 134.684 494.396 134.592C493.54 134.499 493.497 134.265 493.497 134.265C495.346 133.958 497.244 134.171 498.979 134.881C498.979 134.881 503.149 133.384 503.075 133.126Z" fill="black"/>
<path opacity="0.1" d="M213.217 167.086C213.217 167.086 203.017 145.935 190.034 156.359C190.034 156.359 187.231 157.296 187.367 160.235C187.367 160.235 188.444 159.674 189.214 161.941C189.502 162.743 189.882 163.508 190.348 164.221C190.978 165.188 191.905 165.923 192.99 166.316C192.99 166.316 198.577 170.739 209.226 167.72C209.226 167.72 212.201 168.232 212.688 167.874L209.288 165.244C209.288 165.244 207.44 167.813 204.865 168.041C204.865 168.041 209.275 165.435 208.801 164.831C208.702 164.708 206.953 163.519 206.953 163.519C206.953 163.519 203.744 167.973 199.741 168.201C199.741 168.201 205.407 165.798 206.282 163.056L203.51 161.418C203.51 161.418 200.35 166.297 195.799 166.729C195.799 166.729 201.638 164.011 202.876 161.103L199.932 159.871C199.932 159.871 196.76 164.566 192.965 164.905C192.965 164.905 199.396 161.079 199.236 159.631C199.236 159.631 196.458 158.657 195.595 158.75C195.595 158.75 193.243 162.071 191.025 162.071C191.025 162.071 195.047 159.058 194.801 158.571C194.801 158.571 190.847 158.263 188.765 159.187C190.641 158.255 192.728 157.83 194.819 157.955C193.99 156.965 192.889 156.24 191.653 155.866C191.653 155.866 193.858 155.028 195.774 158.041C195.774 158.041 198.854 158.405 199.217 158.756C199.217 158.756 197.745 155.515 195.866 154.104C195.866 154.104 198.712 154.677 200.012 159.033L202.999 160.216C202.999 160.216 201.28 155.829 199.698 154.443C199.698 154.443 202.506 155.484 203.732 160.604L206.467 162.182C206.467 162.182 205.278 158.282 203.849 156.365C203.849 156.365 206.245 157.893 207.237 162.662L208.943 163.931C208.943 163.931 208.019 161.103 207.711 160.315C207.403 159.526 207.557 159.366 207.557 159.366C208.729 160.829 209.471 162.589 209.7 164.449C209.7 164.449 212.996 167.271 213.217 167.086Z" fill="black"/>
<path opacity="0.1" d="M449.6 103.244C449.6 103.244 439.406 82.0926 426.416 92.5172C426.416 92.5172 423.62 93.4537 423.749 96.3926C423.749 96.3926 424.833 95.8381 425.597 98.0992C425.884 98.904 426.266 99.6714 426.736 100.385C427.364 101.35 428.29 102.083 429.372 102.474C429.372 102.474 434.965 106.897 445.608 103.885C445.608 103.885 448.583 104.39 449.076 104.032L445.695 101.395C445.695 101.395 443.847 103.971 441.278 104.199C441.278 104.199 445.682 101.586 445.208 100.983C445.11 100.859 443.36 99.6703 443.36 99.6703C443.36 99.6703 440.157 104.125 436.148 104.353C436.148 104.353 441.82 101.95 442.695 99.2144L439.88 97.5879C439.88 97.5879 436.727 102.461 432.169 102.899C432.169 102.899 438.008 100.176 439.252 97.2675L436.302 96.0353C436.302 96.0353 433.13 100.736 429.342 101.069C429.342 101.069 435.766 97.2428 435.606 95.8011C435.606 95.8011 432.834 94.8215 431.972 94.9201C431.972 94.9201 429.619 98.2348 427.395 98.2348C427.395 98.2348 431.423 95.222 431.177 94.7353C431.177 94.7353 427.223 94.4272 425.135 95.3514C427.011 94.4184 429.098 93.9935 431.189 94.1191C430.363 93.129 429.264 92.4028 428.03 92.0305C428.03 92.0305 430.235 91.1926 432.15 94.2054C432.15 94.2054 435.23 94.5751 435.593 94.9262C435.593 94.9262 434.121 91.6793 432.237 90.2684C432.237 90.2684 435.082 90.8476 436.382 95.2281L439.375 96.4111C439.375 96.4111 437.657 92.0182 436.074 90.6319C436.074 90.6319 438.882 91.6732 440.102 96.7931L442.843 98.3703C442.843 98.3703 441.648 94.4765 440.219 92.5542C440.219 92.5542 442.621 94.0822 443.607 98.8509L445.313 100.12C445.313 100.12 444.395 97.2921 444.081 96.5035C443.767 95.7149 443.927 95.5608 443.927 95.5608C445.095 97.025 445.835 98.7844 446.064 100.644C446.064 100.644 449.409 103.441 449.6 103.244Z" fill="black"/>
<path opacity="0.1" d="M482.176 207.866C482.176 207.866 471.983 186.709 458.974 197.134C458.974 197.134 456.178 198.07 456.307 201.009C456.307 201.009 457.391 200.454 458.155 202.716C458.44 203.52 458.821 204.287 459.288 205.001C459.916 205.966 460.842 206.699 461.925 207.09C461.925 207.09 467.517 211.52 478.167 208.501C478.167 208.501 481.136 209.012 481.628 208.649L478.228 206.018C478.228 206.018 476.381 208.593 473.806 208.821C473.806 208.821 478.21 206.209 477.736 205.605C477.637 205.482 475.888 204.293 475.888 204.293C475.888 204.293 472.685 208.747 468.675 208.981C468.675 208.981 474.348 206.572 475.223 203.837L472.445 202.198C472.445 202.198 469.291 207.078 464.733 207.509C464.733 207.509 470.572 204.786 471.816 201.878L468.866 200.645C468.866 200.645 465.694 205.34 461.906 205.679C461.906 205.679 468.336 201.853 468.176 200.405C468.176 200.405 465.398 199.425 464.536 199.524C464.536 199.524 462.183 202.839 459.96 202.839C459.96 202.839 463.988 199.826 463.742 199.339C463.742 199.339 459.787 199.031 457.699 199.955C459.578 199.023 461.667 198.598 463.76 198.723C462.932 197.731 461.831 197.005 460.594 196.634C460.594 196.634 462.799 195.79 464.715 198.809C464.715 198.809 467.794 199.173 468.158 199.524C468.158 199.524 466.686 196.283 464.807 194.866C464.807 194.866 467.653 195.445 468.952 199.826L471.94 201.009C471.94 201.009 470.221 196.616 468.638 195.236C468.638 195.236 471.447 196.271 472.666 201.397L475.407 202.968C475.407 202.968 474.212 199.074 472.783 197.152C472.783 197.152 475.186 198.68 476.177 203.455L477.883 204.687C477.883 204.687 476.959 201.859 476.652 201.071C476.344 200.282 476.498 200.128 476.498 200.128C477.669 201.59 478.409 203.351 478.635 205.211C478.635 205.211 481.985 208.051 482.176 207.866Z" fill="black"/>
<path opacity="0.1" d="M14.1603 456.216C21.9808 456.216 28.3206 455.507 28.3206 454.633C28.3206 453.758 21.9808 453.049 14.1603 453.049C6.33977 453.049 0 453.758 0 454.633C0 455.507 6.33977 456.216 14.1603 456.216Z" fill="black"/>
<path opacity="0.1" d="M540.345 462.069C548.165 462.069 554.505 461.36 554.505 460.486C554.505 459.611 548.165 458.902 540.345 458.902C532.524 458.902 526.185 459.611 526.185 460.486C526.185 461.36 532.524 462.069 540.345 462.069Z" fill="black"/>
<path opacity="0.1" d="M422.511 454.386C430.332 454.386 436.671 453.677 436.671 452.803C436.671 451.928 430.332 451.219 422.511 451.219C414.69 451.219 408.351 451.928 408.351 452.803C408.351 453.677 414.69 454.386 422.511 454.386Z" fill="black"/>
<path d="M353.755 460.061C353.755 460.061 330.435 472.112 342.483 486.307C342.483 486.307 343.616 489.388 346.893 489.172C346.893 489.172 346.24 487.977 348.741 487.022C349.631 486.678 350.476 486.229 351.26 485.685C352.319 484.953 353.11 483.895 353.514 482.672C353.514 482.672 358.282 476.289 354.586 464.478C354.586 464.478 355.066 461.139 354.648 460.597L351.814 464.484C351.814 464.484 354.74 466.45 355.079 469.339C355.079 469.339 351.999 464.491 351.383 465.027C351.248 465.138 349.979 467.152 349.979 467.152C349.979 467.152 355.054 470.596 355.43 475.069C355.43 475.069 352.572 468.803 349.486 467.91L347.718 471.065C347.718 471.065 353.262 474.441 353.878 479.518C353.878 479.518 350.656 473.079 347.367 471.779L346.068 475.112C346.068 475.112 351.414 478.513 351.907 482.74C351.907 482.74 347.435 475.673 345.827 475.895C345.827 475.895 344.817 479.025 344.953 479.992C344.953 479.992 348.729 482.518 348.796 485.001C348.796 485.001 345.31 480.596 344.774 480.885C344.774 480.885 344.553 485.315 345.624 487.62C345.624 487.62 343.776 484.33 344.078 480.885C342.998 481.841 342.221 483.092 341.842 484.484C341.842 484.484 340.838 482.05 344.146 479.807C344.146 479.807 344.46 476.363 344.842 475.938C344.842 475.938 341.263 477.688 339.742 479.832C339.742 479.832 340.303 476.634 345.156 475.045L346.388 471.668C346.388 471.668 341.534 473.726 340.038 475.538C340.038 475.538 341.116 472.365 346.77 470.843L348.445 467.762C348.445 467.762 344.134 469.216 342.027 470.843C342.027 470.843 343.659 468.113 348.963 466.857L350.324 464.916C350.324 464.916 347.195 466.031 346.32 466.431C345.446 466.832 345.273 466.635 345.273 466.635C346.872 465.282 348.814 464.399 350.884 464.084C350.884 464.084 353.97 460.27 353.755 460.061Z" fill="black"/>
<path d="M422.967 232.449C418.939 221.501 396.765 220.472 387.144 223.263C380.307 225.253 365.895 227.496 358.195 228.623L357.696 228.149C358.694 227.853 358.719 227.126 358.596 226.048C358.524 224.627 358.545 223.203 358.657 221.784C363.375 223.251 367.576 219.782 367.576 219.782C373.119 217.318 371.629 206.77 372.688 203.886C373.483 201.73 374.339 189.026 374.721 182.692H374.801L374.844 180.566C374.899 179.648 374.924 179.112 374.924 179.112C374.924 179.112 375.466 163.623 376.526 160.487C377.511 157.604 378.312 143.076 378.435 140.771C378.435 140.574 378.435 140.47 378.435 140.47L378.355 139.126C378.41 138.147 378.435 137.056 378.429 135.91C378.429 130.643 377.881 124.007 377.813 122.935C377.813 122.781 377.813 122.596 377.813 122.374C377.856 120.125 377.573 108.863 367.995 104.606C364.466 103.028 360.222 101.149 356.114 99.3192C355.054 90.1699 352.634 81.0699 352.843 71.8528C352.843 70.4666 352.966 69.0803 353.102 67.7002C353.102 68.1007 353.059 68.5073 353.052 68.9325C353.052 69.8258 353.052 70.7253 353.052 71.6187C353.416 60.0912 357.77 48.5021 357.364 37.221C357.327 38.3239 357.247 39.4329 357.142 40.5419C357.355 36.7262 356.956 32.901 355.96 29.2115C355.59 27.9115 355.091 26.5684 354.026 25.6997C353.018 25 351.863 24.5425 350.65 24.3627C347.736 23.6164 344.775 23.0648 341.787 22.7115C341.333 21.3214 340.659 20.013 339.791 18.8362C333.546 10.2598 324.294 2.20105 313.356 0.352704C307.868 -0.571469 301.554 0.198674 297.822 4.12333C297.432 4.4681 297.066 4.83859 296.725 5.23233C294.717 7.62902 293.855 10.7774 291.798 13.1679C291.662 13.3281 291.508 13.476 291.361 13.63C287.332 17.2343 281.056 17.9859 276.578 21.2205C275.789 21.8012 275.05 22.4462 274.367 23.149C272.563 24.9375 270.945 26.9048 269.538 29.0205C267.524 31.8547 265.454 34.8059 264.814 38.1883C263.527 44.9656 268.14 51.3917 268.996 58.2121C270.905 73.4732 254.023 87.0154 257.219 102.073C258.072 105.773 259.956 109.154 262.652 111.826C256.068 117.79 250.463 123.576 250.463 123.576V123.921H249.422L249.526 125.153H249.422L249.995 131.838L249.422 141.572C249.422 141.572 249.422 141.677 249.422 141.874V141.924V142.189C249.422 142.189 249.422 142.293 249.422 142.49H249.459C249.65 146.058 250.407 158.885 251.307 161.59C252.366 164.726 252.902 180.215 252.902 180.215C252.902 180.215 254.072 202.106 255.144 205.001C256.215 207.897 254.694 218.414 260.256 220.897C261.883 222.146 263.81 222.945 265.843 223.214C265.559 225.518 265.738 227.188 266.656 227.711C267.048 227.942 267.493 228.07 267.949 228.081C267.572 228.641 267.236 229.228 266.945 229.837C264.737 229.606 262.568 229.095 260.49 228.315C254.516 225.851 234.689 220.306 228.93 224.206C223.171 228.106 209.312 231.642 215.712 247.341C222.111 263.039 225.092 263.434 225.092 263.434C227.062 264.864 228.79 266.601 230.211 268.578C232.133 271.468 250.038 278.079 254.516 278.079C256.419 278.049 258.322 278.144 260.213 278.362C260.213 278.362 255.353 282.626 256 285.103C256.647 287.579 254.522 307.406 254.522 307.406C254.522 307.406 259.449 312.372 261.556 305.859L261.63 305.958C262.024 306.494 264.155 308.915 268.165 305.859C269.806 304.614 271.549 303.509 273.375 302.557L292.79 299.809C294.814 299.683 296.843 299.668 298.869 299.766C301.948 300.019 304.973 298.195 306.876 296.784C310.898 298.312 315.419 299.982 317.568 300.592C321.929 301.824 341.972 307.203 346.659 305.521C347.633 305.133 348.5 304.516 349.184 303.722L353.656 303.863L351.562 304.282C351.562 304.282 355.639 304.35 361.183 304.424L360.949 304.559L367.902 304.498C378.078 304.59 389.509 304.621 391.012 304.282C393.365 303.758 405.591 304.128 409.195 304.282H410.199C410.199 304.282 423.632 301.602 418.089 287.967C413.826 277.493 400.725 274.45 394.911 273.612C396.549 273.285 397.96 273.033 398.896 272.885C402.955 272.269 410.839 268.572 411.48 267.309C412.12 266.046 418.729 262.38 420.435 260.292C422.141 258.203 427.013 243.398 422.967 232.449ZM311.699 263.089L311.04 263.304L310.596 263.452L309.746 264.29C309.069 263.834 308.342 263.354 307.584 262.861C308.921 262.941 310.294 263.021 311.699 263.089Z" fill="url(#paint0_linear)"/>
<path d="M350.97 198.126C350.97 198.126 360.394 222.77 365.753 220.306C371.111 217.841 369.658 207.367 370.68 204.496C371.703 201.625 372.836 179.852 372.836 179.852C372.836 179.852 373.353 164.449 374.376 161.331C375.324 158.466 376.094 144.018 376.224 141.745C376.224 141.548 376.224 141.443 376.224 141.443L375.207 123.576L369.455 122.14L356.113 127.069L354.266 137.623L353.545 141.745L353.237 143.501L350.97 198.126Z" fill="#BE6F72"/>
<path opacity="0.1" d="M354.075 193.998C354.075 193.998 363.067 201.36 365.778 202.007C368.488 202.654 370.151 208.396 370.151 208.396" fill="black"/>
<path d="M277.274 199.204C277.274 199.204 267.85 223.848 262.492 221.384C257.133 218.919 258.587 208.445 257.564 205.574C256.542 202.703 255.409 180.93 255.409 180.93C255.409 180.93 254.891 165.527 253.869 162.409C252.92 159.544 252.15 145.096 252.021 142.823C252.021 142.626 252.021 142.521 252.021 142.521L253.043 124.654L258.796 123.218L272.137 128.147L273.985 138.701L274.706 142.823L275.014 144.579L277.274 199.204Z" fill="#BE6F72"/>
<path d="M338.64 67.3181H317.605V100.114H338.64V67.3181Z" fill="#3E373A"/>
<path opacity="0.1" d="M338.64 67.3181H317.605V100.114H338.64V67.3181Z" fill="black"/>
<path d="M273.579 223.75C273.579 223.75 266.391 231.655 269.058 233.09C271.725 234.526 288.977 261.431 288.977 261.431C288.977 261.431 345.643 268.412 356.329 257.938C367.015 247.464 366.8 228.753 366.8 228.753C366.8 228.753 358.214 230.601 357.278 229.597C356.341 228.593 351.198 223.75 351.198 223.75C351.198 223.75 278.506 219.339 273.579 223.75Z" fill="#4B4B5B"/>
<path opacity="0.02" d="M273.579 223.75C273.579 223.75 266.391 231.655 269.058 233.09C271.725 234.526 288.977 261.431 288.977 261.431C288.977 261.431 345.643 268.412 356.329 257.938C367.015 247.464 366.8 228.753 366.8 228.753C366.8 228.753 358.214 230.601 357.278 229.597C356.341 228.593 351.198 223.75 351.198 223.75C351.198 223.75 278.506 219.339 273.579 223.75Z" fill="black"/>
<path d="M375.589 123.835L357.111 138.621L351.525 139.028L349.474 139.176L315.025 141.702L279.301 139.09L273.985 138.701L267.21 138.209L253.043 124.654C253.043 124.654 263.071 113.909 271.854 106.657C275.316 103.792 278.586 101.476 280.97 100.564L281.376 100.422C282.876 99.8374 284.214 98.9039 285.281 97.699C292.217 90.5459 298.629 72.8942 298.629 72.8942C298.629 72.8942 329.222 57.0847 325.526 77.8231C321.831 98.5616 339.28 93.4355 339.28 93.4355L345.033 96.0601L347.306 97.1014L353.102 99.7568L366.178 105.758C376.439 110.483 375.589 123.835 375.589 123.835Z" fill="#BE6F72"/>
<path opacity="0.1" d="M313.59 89.7817C328.785 89.7817 341.103 77.4598 341.103 62.2599C341.103 47.06 328.785 34.738 313.59 34.738C298.394 34.738 286.076 47.06 286.076 62.2599C286.076 77.4598 298.394 89.7817 313.59 89.7817Z" fill="black"/>
<path opacity="0.1" d="M375.632 143.439H252.021C252.021 143.242 252.021 143.137 252.021 143.137L253.043 125.27C253.043 125.27 263.071 114.525 271.854 107.273L349.461 104.193L353.071 100.385L366.147 106.386C376.415 111.106 375.589 124.457 375.589 124.457C375.589 124.457 376.994 139.927 375.632 143.439Z" fill="black"/>
<path d="M375.632 142.823H252.021C252.021 142.626 252.021 142.521 252.021 142.521L253.043 124.654C253.043 124.654 263.071 113.909 271.854 106.657L349.461 103.577L353.071 99.769L366.147 105.77C376.415 110.489 375.589 123.841 375.589 123.841C375.589 123.841 376.994 139.311 375.632 142.823Z" fill="#E7C7CA"/>
<path opacity="0.1" d="M293.775 92.7205C293.775 92.7205 313.275 117.575 339.249 92.2092C365.223 66.8437 342.126 148.787 342.126 148.787L286.076 155.441L293.775 92.7205Z" fill="black"/>
<path d="M293.775 93.953C293.775 93.953 313.275 118.807 339.249 93.4416C365.223 68.0761 342.126 150.019 342.126 150.019L286.076 156.673L293.775 93.953Z" fill="#E7C7CA"/>
<path opacity="0.1" d="M347.275 98.3149L349.338 129.792L351.55 140.266L353.237 148.276C353.237 148.276 357.549 209.887 356.317 212.968C355.085 216.048 356.933 218.513 357.191 220.152C357.45 221.791 356.933 225.906 357.136 227.755C357.339 229.603 357.136 230.422 352.418 229.763C347.7 229.104 341.122 227.958 341.122 227.958C341.122 227.958 324.492 229.19 318.745 227.138C312.998 225.087 302.115 225.081 302.115 225.081C302.115 225.081 285.688 225.493 280.354 224.877C275.02 224.261 272.137 231.451 268.651 229.393C265.165 227.336 272.753 207.423 275.217 201.668C277.681 195.914 271.934 181.336 271.934 181.336L279.325 140.322L280.97 131.024V101.796L281.376 101.654C282.876 101.069 284.214 100.136 285.281 98.931L287.129 128.344L345.027 130.402V97.2983" fill="black"/>
<path d="M347.275 97.0827L349.338 128.56L351.55 139.034L353.237 147.044C353.237 147.044 357.549 208.655 356.317 211.736C355.085 214.816 356.933 217.281 357.191 218.919C357.45 220.558 356.933 224.674 357.136 226.522C357.339 228.371 357.136 229.19 352.418 228.531C347.7 227.872 341.122 226.726 341.122 226.726C341.122 226.726 324.492 227.958 318.745 225.906C312.998 223.855 302.115 223.848 302.115 223.848C302.115 223.848 285.688 224.261 280.354 223.645C275.02 223.029 272.137 230.219 268.651 228.161C265.165 226.103 272.753 206.191 275.217 200.436C277.681 194.682 271.934 180.104 271.934 180.104L279.325 139.089L280.97 129.792V100.564L281.376 100.422C282.876 99.8372 284.214 98.9038 285.281 97.6989L287.129 127.112L345.027 129.17V96.0662" fill="#E7C7CA"/>
<path opacity="0.1" d="M353.933 31.3925C353.582 30.1048 353.096 28.7679 352.085 27.9053C351.121 27.2125 350.007 26.7566 348.833 26.5745C346.024 25.8355 343.168 25.288 340.284 24.9356C339.872 23.5676 339.249 22.2724 338.436 21.0972C332.4 12.5702 323.469 4.52991 312.961 2.71238C307.461 1.7574 301.086 2.6138 297.563 6.95124C295.629 9.33561 294.798 12.4963 292.845 14.8375C289.082 19.3844 282.288 19.9451 277.545 23.4631C275.014 25.3115 273.178 27.9916 271.386 30.5916C269.446 33.4072 267.45 36.3399 266.834 39.7039C265.602 46.4257 270.043 52.8333 270.862 59.6167C272.71 74.7917 256.45 88.2538 259.523 103.225C261.315 111.956 269.378 118.105 277.718 121.222C280.656 122.325 284.013 123.422 285.386 126.243C286.002 127.476 286.107 128.899 286.686 130.143C288.632 134.296 295.032 134.456 298.468 131.431C301.905 128.406 302.989 123.514 303.396 118.949C305.047 99.0111 297.064 79.3139 297.994 59.3272C298.271 53.2831 299.971 46.4257 305.385 43.6902C312.672 39.9935 321.437 46.1546 329.456 44.9779C333.251 54.2143 334.057 64.4081 331.76 74.1263C330.485 79.4433 328.28 84.6002 328.119 90.0836C327.879 98.432 332.382 106.059 336.274 113.441C337.11 114.821 337.668 116.351 337.919 117.944C337.98 119.561 337.679 121.172 337.038 122.658C334.839 128.578 331.045 134.074 330.614 140.377C330.488 141.113 330.653 141.869 331.076 142.484C331.51 142.895 332.07 143.147 332.665 143.199C339.317 144.339 345.07 138.442 348.316 132.522C351.935 125.982 354.044 118.715 354.487 111.253C355.159 98.7092 350.663 86.3685 350.94 73.812C351.26 59.5366 357.709 45.1627 353.933 31.3925Z" fill="black"/>
<path d="M354.549 30.7766C354.198 29.4889 353.711 28.1519 352.701 27.2893C351.737 26.5965 350.623 26.1406 349.449 25.9585C346.64 25.2196 343.783 24.672 340.9 24.3197C340.488 22.9516 339.865 21.6564 339.052 20.4813C333.016 11.9542 324.085 3.91395 313.577 2.09641C308.077 1.14143 301.702 1.99783 298.179 6.33528C296.245 8.71964 295.413 11.8803 293.461 14.2215C289.698 18.7685 282.904 19.3291 278.161 22.8472C275.63 24.6955 273.794 27.3756 272.002 29.9756C270.062 32.7913 268.066 35.724 267.45 39.0879C266.218 45.8098 270.659 52.2174 271.478 59.0008C273.326 74.1757 257.065 87.6378 260.139 102.609C261.931 111.34 269.994 117.489 278.334 120.606C281.272 121.709 284.628 122.806 286.002 125.627C286.618 126.86 286.723 128.283 287.302 129.527C289.248 133.68 295.647 133.84 299.084 130.815C302.521 127.79 303.605 122.898 304.012 118.333C305.662 98.3952 297.68 78.698 298.61 58.7112C298.887 52.6671 300.587 45.8098 306.001 43.0742C313.288 39.3775 322.052 45.5387 330.072 44.3619C333.867 53.5983 334.672 63.7922 332.375 73.5103C331.1 78.8274 328.895 83.9842 328.735 89.4677C328.495 97.816 332.998 105.444 336.89 112.825C337.725 114.205 338.284 115.735 338.535 117.328C338.596 118.946 338.295 120.556 337.654 122.042C335.455 127.963 331.661 133.458 331.23 139.761C331.103 140.497 331.269 141.253 331.692 141.868C332.126 142.279 332.686 142.531 333.281 142.583C339.933 143.723 345.686 137.827 348.932 131.906C352.551 125.366 354.66 118.099 355.103 110.637C355.775 98.0933 351.278 85.7525 351.556 73.1961C351.876 58.9207 358.325 44.5467 354.549 30.7766Z" fill="#3E373A"/>
<path d="M340.943 303.574L365.377 304.356L361.872 286.23L343.154 288.011L340.943 303.574Z" fill="#C3C7D9"/>
<path d="M416.654 260.612C415.009 262.664 408.646 266.36 408.03 267.593C407.415 268.825 399.82 272.521 395.915 273.138C392.01 273.754 379.698 276.428 377.437 277.863C375.817 278.898 362.815 282.176 354.272 283.994C351.958 284.541 349.616 284.963 347.256 285.257C343.561 285.46 303.119 271.702 303.119 271.702L310.916 263.693L311.348 263.545C313.553 262.799 323.74 259.355 329.394 257.716C335.763 255.868 343.154 248.271 343.154 248.271C343.154 248.271 354.032 244.575 355.473 244.162C356.914 243.749 351.777 229.788 351.777 229.788C351.777 229.788 375.386 226.51 384.625 223.731C393.864 220.953 415.218 221.982 419.117 232.868C423.016 243.755 418.323 258.56 416.654 260.612Z" fill="#4B4B5B"/>
<path d="M309.069 295.318C309.069 295.318 304.351 300.247 299.626 299.84C294.902 299.433 278.383 301.072 278.383 301.072C275.389 302.267 272.586 303.892 270.062 305.896C266.2 308.94 264.149 306.512 263.767 305.995L263.699 305.896C261.642 312.372 256.924 307.437 256.924 307.437C256.924 307.437 258.975 287.721 258.347 285.256C257.718 282.792 262.406 278.559 262.406 278.559L267.949 277.148L281.992 273.55L302.115 280.531L309.069 295.318Z" fill="#E7C7CA"/>
<path opacity="0.1" d="M267.924 277.148L263.767 305.995L263.699 305.896C261.642 312.372 256.924 307.437 256.924 307.437C256.924 307.437 258.975 287.721 258.347 285.257C257.718 282.792 262.406 278.559 262.406 278.559L267.924 277.148Z" fill="black"/>
<path opacity="0.1" d="M296.984 195.094C296.984 195.094 307.861 198.791 317.31 195.094H296.984Z" fill="black"/>
<path opacity="0.1" d="M334.119 202.081C334.119 202.081 338.633 204.336 342.126 202.081H334.119Z" fill="black"/>
<path opacity="0.1" d="M334.119 207.429C334.119 207.429 341.713 208.445 343.154 206.394L334.119 207.429Z" fill="black"/>
<path opacity="0.1" d="M331.655 218.919C331.655 218.919 345.92 217.071 349.462 214.607L331.655 218.919Z" fill="black"/>
<path opacity="0.1" d="M288.127 214.607C288.127 214.607 296.134 219.123 302.09 218.919L288.127 214.607Z" fill="black"/>
<path opacity="0.1" d="M354.266 283.994C351.952 284.541 349.61 284.963 347.25 285.257C343.555 285.46 303.113 271.702 303.113 271.702L310.91 263.693L311.341 263.545C312.573 264.413 313.583 265.159 314.304 265.726C317.698 268.4 320.975 264.906 322.206 264.906C323.438 264.906 334.112 273.735 334.112 273.735C334.112 273.735 343.967 275.996 345.612 278.048C347.256 280.1 353.003 279.693 354.025 281.129C354.333 281.572 354.37 282.663 354.266 283.994Z" fill="black"/>
<path d="M278.383 230.626C278.383 230.626 268.417 231.199 262.67 228.777C256.924 226.356 237.83 220.768 232.287 224.692C226.743 228.617 213.396 232.086 219.555 247.698C225.715 263.31 228.591 263.717 228.591 263.717C230.497 265.147 232.16 266.873 233.518 268.831C235.366 271.708 252.612 278.276 256.924 278.276C261.235 278.276 268.83 278.276 279.504 285.669C290.178 293.063 299.83 293.888 299.83 293.888C299.83 293.888 313.38 299.433 317.599 300.666C321.818 301.898 341.097 307.233 345.618 305.594C350.139 303.956 353.009 293.679 353.009 293.679C353.009 293.679 355.06 284.437 354.032 283.002C353.003 281.566 347.256 281.973 345.618 279.921C343.98 277.869 334.119 275.608 334.119 275.608C334.119 275.608 323.469 266.773 322.237 266.773C321.005 266.773 317.729 270.26 314.335 267.592C307.574 262.584 300.472 258.054 293.079 254.038C285.281 249.928 278.383 230.626 278.383 230.626Z" fill="#4B4B5B"/>
<path opacity="0.1" d="M258.347 236.583C260.121 236.221 261.955 236.273 263.706 236.736C265.457 237.198 267.078 238.059 268.442 239.251C273.369 243.361 289.95 251.61 289.95 251.61" fill="black"/>
<path opacity="0.1" d="M381.545 236.325C381.545 236.325 359.575 239.652 355.473 244.168L381.545 236.325Z" fill="black"/>
<path d="M406.799 304.356H405.832C402.358 304.233 390.587 303.863 388.321 304.356C385.654 304.972 350.336 304.356 350.336 304.356L357.241 302.921C357.241 302.921 354.678 293.938 356.304 293.192C356.304 293.192 347.065 287.105 354.032 282.995C360.998 278.886 368.506 280.617 368.506 280.617L385.992 274.69L389.349 273.55C389.349 273.55 409.059 274.579 414.393 288.134C419.727 301.688 406.799 304.356 406.799 304.356Z" fill="#E7C7CA"/>
<path opacity="0.1" d="M406.799 304.356H405.832C411.566 299.624 424.537 285.22 385.992 274.721L389.349 273.581C389.349 273.581 409.059 274.61 414.393 288.165C419.727 301.719 406.799 304.356 406.799 304.356Z" fill="black"/>
<path d="M370.563 288.386C371.159 288.386 371.641 287.904 371.641 287.308C371.641 286.713 371.159 286.23 370.563 286.23C369.968 286.23 369.485 286.713 369.485 287.308C369.485 287.904 369.968 288.386 370.563 288.386Z" fill="#4B4B5B"/>
<path d="M364.299 290.167C364.895 290.167 365.377 289.684 365.377 289.089C365.377 288.493 364.895 288.01 364.299 288.01C363.704 288.01 363.221 288.493 363.221 289.089C363.221 289.684 363.704 290.167 364.299 290.167Z" fill="#4B4B5B"/>
<g opacity="0.1">
<path opacity="0.1" d="M333.78 61.2434C334.019 54.4666 332.813 47.7166 330.244 41.4414C322.237 42.6367 313.466 36.4571 306.174 40.1538C300.778 42.8893 299.084 49.7467 298.782 55.7908C298.709 57.3865 298.696 58.9822 298.727 60.578C298.727 60.0111 298.727 59.4382 298.782 58.8713C299.066 52.8272 300.76 45.9699 306.174 43.2343C313.466 39.5376 322.225 45.6988 330.244 44.522C332.42 49.8373 333.618 55.5021 333.78 61.2434Z" fill="black"/>
<path opacity="0.1" d="M271.731 60.1159C271.836 58.7734 271.809 57.4238 271.651 56.0865C270.998 50.6647 268.035 45.4832 267.499 40.1969C266.809 46.5737 270.868 52.6979 271.651 59.1671C271.731 59.4998 271.731 59.7955 271.731 60.1159Z" fill="black"/>
<path opacity="0.1" d="M304.184 115.406C303.802 119.978 302.725 124.863 299.257 127.895C295.789 130.926 289.402 130.76 287.474 126.607C286.858 125.375 286.766 123.939 286.168 122.707C284.801 119.885 281.438 118.789 278.5 117.686C270.154 114.562 262.104 108.444 260.311 99.689C260.151 98.8958 260.042 98.0932 259.985 97.2861C259.834 99.1202 259.943 100.966 260.311 102.77C262.104 111.5 270.166 117.643 278.5 120.766C281.438 121.869 284.801 122.966 286.168 125.788C286.784 127.02 286.889 128.443 287.474 129.688C289.414 133.84 295.814 134 299.257 130.975C302.7 127.95 303.772 123.058 304.184 118.487C304.372 116.08 304.436 113.666 304.375 111.253C304.375 112.652 304.295 114.032 304.184 115.406Z" fill="black"/>
<path opacity="0.1" d="M351.759 70.2757C351.759 71.169 351.759 72.0563 351.759 72.9435C352.104 61.4837 356.304 49.9624 355.892 38.7429C355.571 49.1183 351.993 59.7278 351.759 70.2757Z" fill="black"/>
<path opacity="0.1" d="M338.541 116.632C338.692 115.901 338.74 115.152 338.683 114.408C338.435 112.814 337.876 111.283 337.038 109.904C333.478 103.127 329.419 96.1895 328.939 88.6667C328.939 88.9871 328.895 89.2829 328.889 89.6279C328.643 97.9701 333.145 105.604 337.038 112.985C337.7 114.128 338.205 115.355 338.541 116.632Z" fill="black"/>
<path opacity="0.1" d="M355.3 107.717C354.841 115.181 352.717 122.448 349.086 128.985C345.834 134.906 340.087 140.802 333.429 139.663C332.832 139.611 332.271 139.357 331.84 138.942C331.714 138.801 331.616 138.638 331.55 138.461C331.476 138.942 331.415 139.428 331.378 139.921C331.25 140.655 331.416 141.41 331.84 142.022C332.271 142.437 332.832 142.692 333.429 142.743C340.087 143.883 345.834 137.987 349.086 132.066C352.717 125.529 354.841 118.262 355.3 110.798C355.374 109.356 355.38 107.92 355.337 106.485C355.325 106.898 355.325 107.304 355.3 107.717Z" fill="black"/>
</g>
<path opacity="0.1" d="M356.304 293.192C356.304 293.192 371.894 299.735 382.174 285.257" stroke="black" stroke-miterlimit="10"/>
<path opacity="0.1" d="M359.372 304.627C359.372 304.627 372.103 296.347 388.321 304.356" stroke="black" stroke-miterlimit="10"/>
<path opacity="0.1" d="M274.151 302.748C274.151 302.748 279.498 290.685 293.775 299.883" stroke="black" stroke-miterlimit="10"/>
<path opacity="0.1" d="M256.819 124.346L267.721 114.488C267.721 114.488 309.993 111.715 311.742 126.089C311.742 126.089 326.727 109.048 358.245 112.843L371.58 123.465L334.722 139.644L298.906 152.071L272.525 140.26L256.819 124.346Z" fill="black"/>
<path d="M256.819 124.962L267.721 115.104C267.721 115.104 309.993 112.332 311.742 126.706C311.742 126.706 326.727 109.664 358.245 113.459L371.58 124.081L334.722 140.26L298.906 152.687L272.525 140.876L256.819 124.962Z" fill="#D5D6DB"/>
<path opacity="0.1" d="M251.996 126.194L256.819 183.906L307.941 186.475L305.724 129.01L305.681 128.042L251.996 126.194Z" fill="black"/>
<path d="M251.996 124.962L256.819 182.673L307.941 185.243L305.724 127.778L305.681 126.81L251.996 124.962Z" fill="black"/>
<path opacity="0.1" d="M373.92 124.962L321.184 132.873V190.843L372.719 183.394L373.92 124.962Z" fill="black"/>
<path d="M373.92 123.73L321.184 131.641V189.611L372.719 182.162L373.92 123.73Z" fill="black"/>
<path opacity="0.3" d="M361.484 137.876L332.998 141.043L333.62 150.753L361.466 147.709L361.484 137.876Z" fill="white"/>
<path d="M259.591 213.578L262.492 221.384C262.492 221.384 266.803 225.081 271.521 223.232C276.239 221.384 280.354 220.466 282.405 218.667C284.456 216.868 287.332 207.83 287.332 207.83C287.332 207.83 290.209 197.972 293.079 195.507C295.949 193.043 303.55 159.089 293.079 162.41C282.608 165.73 274.601 196.536 274.601 196.536C274.601 196.536 272.753 198.791 270.086 199.001C267.419 199.21 262.079 198.588 261.051 200.849C260.022 203.11 256.511 209.062 259.591 213.578Z" fill="#BE6F72"/>
<path opacity="0.1" d="M321.184 132.867C318.484 133.475 315.679 133.443 312.993 132.774C310.308 132.104 307.816 130.815 305.718 129.01L307.941 186.469C307.941 186.469 313.177 192.137 321.184 190.843V132.867Z" fill="black"/>
<path d="M321.184 131.634C318.484 132.243 315.679 132.211 312.993 131.542C310.308 130.872 307.816 129.583 305.718 127.778L307.941 185.236C307.941 185.236 313.177 190.905 321.184 189.611V131.634Z" fill="black"/>
<path opacity="0.1" d="M321.184 131.634C318.484 132.243 315.679 132.211 312.993 131.542C310.308 130.872 307.816 129.583 305.718 127.778L307.941 185.236C307.941 185.236 313.177 190.905 321.184 189.611V131.634Z" fill="black"/>
<path opacity="0.1" d="M322.416 125.159C322.416 125.159 343.869 118.597 349.462 119.522L322.416 125.159Z" fill="black"/>
<path opacity="0.1" d="M298.419 122.294C298.419 122.294 277.625 117.365 274.151 118.764L298.419 122.294Z" fill="black"/>
<path opacity="0.1" d="M335.942 125.979C335.942 125.979 350.287 120.717 355.473 123.218L335.942 125.979Z" fill="black"/>
<path opacity="0.1" d="M328.717 257.969C330.94 256.299 333.306 254.829 335.788 253.576C339.483 251.795 346.259 247.175 346.259 247.175" fill="black"/>
<path opacity="0.1" d="M274.151 195.094C274.151 195.094 265.153 202.457 262.449 203.104C259.745 203.751 258.076 209.493 258.076 209.493" fill="black"/>
<path d="M368.629 212.481L365.759 220.306C365.759 220.306 361.448 224.002 356.723 222.154C351.999 220.306 347.897 219.388 345.84 217.589C343.783 215.79 340.912 206.751 340.912 206.751C340.912 206.751 338.042 196.893 335.166 194.429C332.289 191.964 324.695 158.01 335.166 161.331C345.637 164.652 353.644 195.458 353.644 195.458C353.644 195.458 355.491 197.713 358.158 197.922C360.825 198.132 366.166 197.509 367.194 199.771C368.223 202.032 371.709 207.983 368.629 212.481Z" fill="#BE6F72"/>
<path opacity="0.1" d="M363.597 198.089C363.597 198.089 369.479 201.872 369.455 206.394L363.597 198.089Z" fill="black"/>
<path d="M313.688 88.4326C328.883 88.4326 341.202 76.1107 341.202 60.9108C341.202 45.7109 328.883 33.3889 313.688 33.3889C298.493 33.3889 286.174 45.7109 286.174 60.9108C286.174 76.1107 298.493 88.4326 313.688 88.4326Z" fill="#BE6F72"/>
<path d="M296.411 53.5234C299.75 52.9997 302.675 51.0589 305.866 49.9438C313.004 47.4362 320.901 49.1552 328.126 51.4163C330.897 52.285 333.712 53.2646 336.619 53.2646C339.527 53.2646 342.612 52.0755 344.097 49.5679C345.464 47.2637 345.199 44.2694 344.047 41.848C342.896 39.4267 340.968 37.4798 339.021 35.6438C332.616 29.5935 324.67 23.9376 315.881 24.5537C312.345 24.8063 308.964 26.0693 305.712 27.4679C301.617 29.2331 297.631 31.2411 293.775 33.4812C290.812 35.2001 285.324 37.4983 283.618 40.6404C279.738 47.7196 290.375 54.4722 296.411 53.5234Z" fill="#3E373A"/>
<path opacity="0.1" d="M344.097 46.9802C342.612 49.4878 339.526 50.6769 336.619 50.6769C333.712 50.6769 330.897 49.7342 328.119 48.8655C320.895 46.6044 313.004 44.8793 305.86 47.393C302.675 48.5082 299.743 50.4736 296.405 50.9665C291.539 51.7305 283.705 47.4916 282.855 42.1006C281.9 48.3295 290.985 53.6651 296.405 52.8148C299.743 52.2911 302.675 50.3504 305.86 49.2414C313.004 46.7276 320.895 48.4527 328.119 50.7139C330.897 51.5826 333.706 52.5622 336.619 52.5252C339.533 52.4883 342.612 51.3423 344.097 48.8286C344.866 47.461 345.169 45.8799 344.959 44.3248C344.863 45.261 344.569 46.1662 344.097 46.9802Z" fill="black"/>
<path d="M567.378 380.884C567.378 380.884 571.031 385.659 565.691 392.873C560.35 400.088 555.953 406.175 557.727 410.673C557.727 410.673 565.783 397.279 572.336 397.088C578.89 396.897 574.578 388.936 567.378 380.884Z" fill="black"/>
<path opacity="0.1" d="M567.378 380.884C567.696 381.345 567.947 381.849 568.123 382.381C574.517 389.898 577.929 396.915 571.776 397.088C566.048 397.254 559.18 407.5 557.536 410.081C557.588 410.29 557.652 410.496 557.727 410.698C557.727 410.698 565.783 397.303 572.337 397.112C578.89 396.921 574.578 388.936 567.378 380.884Z" fill="black"/>
<path d="M574.154 386.971C574.154 388.653 573.963 390.015 573.735 390.015C573.507 390.015 573.31 388.653 573.31 386.971C573.31 385.289 573.544 386.084 573.778 386.084C574.012 386.084 574.154 385.289 574.154 386.971Z" fill="#FFD037"/>
<path d="M576.488 388.98C575.016 389.78 573.729 390.267 573.618 390.064C573.507 389.861 574.609 389.041 576.081 388.216C577.553 387.39 576.975 387.994 577.085 388.216C577.196 388.437 577.966 388.172 576.488 388.98Z" fill="#FFD037"/>
<path d="M548.075 380.884C548.075 380.884 544.422 385.659 549.763 392.873C555.103 400.088 559.5 406.175 557.72 410.673C557.72 410.673 549.67 397.279 543.11 397.088C536.551 396.897 540.893 388.936 548.075 380.884Z" fill="black"/>
<path opacity="0.1" d="M548.075 380.884C547.757 381.345 547.506 381.849 547.33 382.381C540.936 389.898 537.524 396.915 543.677 397.088C549.399 397.254 556.273 407.5 557.917 410.081C557.866 410.291 557.8 410.497 557.72 410.698C557.72 410.698 549.67 397.303 543.11 397.112C536.551 396.921 540.893 388.936 548.075 380.884Z" fill="black"/>
<path d="M541.287 386.971C541.287 388.653 541.472 390.015 541.706 390.015C541.94 390.015 542.131 388.653 542.131 386.971C542.131 385.289 541.891 386.084 541.663 386.084C541.435 386.084 541.287 385.289 541.287 386.971Z" fill="#FFD037"/>
<path d="M538.959 388.98C540.431 389.78 541.718 390.267 541.829 390.064C541.94 389.861 540.838 389.041 539.366 388.216C537.894 387.39 538.473 387.994 538.362 388.216C538.251 388.437 537.481 388.172 538.959 388.98Z" fill="#FFD037"/>
<path opacity="0.1" d="M557.727 447.221C578.817 447.221 595.914 444.598 595.914 441.362C595.914 438.126 578.817 435.502 557.727 435.502C536.636 435.502 519.539 438.126 519.539 441.362C519.539 444.598 536.636 447.221 557.727 447.221Z" fill="black"/>
<path d="M577.381 404.235L577.196 405.726L576.937 407.833L576.833 408.714L576.574 410.821L576.463 411.702L576.211 413.803L573.285 437.77C573.026 439.908 569.534 441.577 565.315 441.577H550.132C545.913 441.577 542.427 439.908 542.162 437.77L539.236 413.803L538.978 411.702L538.873 410.821L538.614 408.714L538.503 407.833L538.251 405.726L538.066 404.235C537.924 403.002 539.809 402.004 542.199 402.004H573.254C575.638 402.004 577.529 403.021 577.381 404.235Z" fill="#65617D"/>
<path d="M577.196 405.726L576.944 407.833H538.51L538.251 405.726H577.196Z" fill="#9D9CB5"/>
<path d="M576.833 408.714L576.58 410.821H538.873L538.614 408.714H576.833Z" fill="#9D9CB5"/>
<path d="M576.469 411.702L576.211 413.809H539.236L538.984 411.702H576.469Z" fill="#9D9CB5"/>
<defs>
<linearGradient id="paint0_linear" x1="319.293" y1="309.236" x2="319.293" y2="-0.00464491" gradientUnits="userSpaceOnUse">
<stop stop-color="#808080" stop-opacity="0.25"/>
<stop offset="0.54" stop-color="#808080" stop-opacity="0.12"/>
<stop offset="1" stop-color="#808080" stop-opacity="0.1"/>
</linearGradient>
</defs>
</svg>
