<svg width="482" height="388" viewBox="0 0 482 388" fill="none" xmlns="http://www.w3.org/2000/svg">
<g clip-path="url(#clip0)">
<path d="M175.393 294.314C173.934 290.818 173.773 286.915 174.941 283.311C176.109 279.707 178.527 276.64 181.759 274.663C182.836 274.008 181.852 272.313 180.77 272.971C177.062 275.184 174.295 278.679 172.992 282.795C171.69 286.91 171.941 291.361 173.7 295.303C174.195 296.459 175.884 295.462 175.393 294.314H175.393Z" fill="#3F3D56"/>
<path d="M175.954 296.95C173.31 292.267 173.932 286.664 174.883 281.6C175.876 276.314 177.177 270.947 176.051 265.571C175.541 262.961 174.332 260.538 172.553 258.56C171.697 257.63 170.314 259.019 171.167 259.946C174.492 263.556 174.878 268.793 174.339 273.444C173.703 278.93 171.9 284.276 172.124 289.851C172.182 292.678 172.915 295.451 174.261 297.939C174.397 298.154 174.611 298.308 174.858 298.368C175.105 298.428 175.366 298.39 175.586 298.262C175.805 298.134 175.966 297.925 176.035 297.68C176.104 297.435 176.075 297.174 175.954 296.95L175.954 296.95Z" fill="#3F3D56"/>
<path d="M190.143 311.902H156.819C156.039 311.901 155.292 311.591 154.741 311.04C154.19 310.489 153.88 309.742 153.879 308.963V299.178C153.882 296.663 154.882 294.253 156.661 292.475C158.439 290.697 160.851 289.696 163.366 289.694H168.254C168.514 289.693 168.763 289.59 168.947 289.406C169.13 289.223 169.234 288.974 169.234 288.714V284.141C169.234 283.708 169.407 283.293 169.713 282.987C170.019 282.681 170.434 282.509 170.867 282.508H176.095C176.528 282.509 176.943 282.681 177.249 282.987C177.555 283.293 177.728 283.708 177.728 284.141V288.714C177.729 288.974 177.832 289.223 178.016 289.406C178.199 289.59 178.449 289.693 178.708 289.694H183.596C186.111 289.696 188.523 290.697 190.301 292.475C192.08 294.253 193.081 296.663 193.083 299.178V308.963C193.083 309.742 192.772 310.489 192.221 311.04C191.67 311.592 190.923 311.901 190.143 311.902Z" fill="#CCCCCC"/>
<path d="M173.993 253.14C174.695 256.863 173.826 260.151 172.053 260.485C170.28 260.819 168.274 258.072 167.572 254.35C166.87 250.627 169.028 244.438 169.028 244.438C169.028 244.438 173.292 249.418 173.993 253.14Z" fill="black"/>
<path d="M187.449 270.458C185.228 273.527 182.241 275.157 180.78 274.099C179.318 273.041 179.935 269.696 182.156 266.628C184.378 263.56 190.359 260.871 190.359 260.871C190.359 260.871 189.671 267.39 187.449 270.458Z" fill="black"/>
<path d="M113.972 59.1627C112.513 55.6665 112.353 51.7639 113.52 48.16C114.688 44.556 117.106 41.4883 120.339 39.5111C121.415 38.8568 120.431 37.1615 119.349 37.819C115.642 40.0321 112.874 43.5274 111.572 47.6431C110.269 51.7588 110.521 56.2092 112.28 60.1517C112.774 61.3077 114.463 60.3105 113.972 59.1627H113.972Z" fill="#3F3D56"/>
<path d="M114.533 61.7981C111.889 57.1157 112.511 51.5122 113.462 46.4487C114.455 41.1628 115.756 35.7959 114.63 30.4198C114.12 27.8097 112.911 25.3867 111.133 23.4086C110.276 22.4788 108.893 23.8673 109.747 24.7942C113.072 28.4045 113.457 33.6417 112.918 38.2929C112.282 43.7788 110.479 49.1246 110.703 54.6992C110.761 57.5269 111.494 60.2997 112.84 62.7872C112.976 63.0022 113.19 63.156 113.437 63.2163C113.684 63.2766 113.945 63.2386 114.165 63.1102C114.384 62.9819 114.545 62.7734 114.614 62.5286C114.683 62.2838 114.654 62.0219 114.533 61.7981L114.533 61.7981Z" fill="#3F3D56"/>
<path d="M128.722 76.7509H95.3982C94.6187 76.75 93.8713 76.44 93.3201 75.889C92.7688 75.3379 92.4588 74.5908 92.4579 73.8115V64.0263C92.4608 61.5118 93.4613 59.1011 95.2399 57.3231C97.0184 55.5451 99.4299 54.545 101.945 54.5421H106.833C107.093 54.5418 107.342 54.4385 107.526 54.2548C107.709 54.0711 107.813 53.8221 107.813 53.5623V48.9899C107.814 48.557 107.986 48.1419 108.292 47.8358C108.598 47.5296 109.014 47.3574 109.447 47.3569H114.674C115.107 47.3574 115.522 47.5296 115.828 47.8358C116.135 48.1419 116.307 48.557 116.307 48.9899V53.5623C116.308 53.8221 116.411 54.0711 116.595 54.2548C116.779 54.4385 117.028 54.5418 117.288 54.5421H122.175C124.691 54.545 127.102 55.5451 128.881 57.3231C130.659 59.1011 131.66 61.5118 131.663 64.0263V73.8115C131.662 74.5908 131.352 75.3379 130.8 75.889C130.249 76.44 129.502 76.75 128.722 76.7509Z" fill="#CCCCCC"/>
<path d="M112.572 17.9889C113.274 21.7113 112.405 24.9996 110.632 25.3336C108.859 25.6676 106.853 22.9207 106.151 19.1984C105.45 15.476 107.608 9.28601 107.608 9.28601C107.608 9.28601 111.871 14.2665 112.572 17.9889Z" fill="black"/>
<path d="M126.029 35.3068C123.807 38.3751 120.821 40.005 119.359 38.9474C117.898 37.8897 118.514 34.5449 120.736 31.4765C122.958 28.4082 128.938 25.7195 128.938 25.7195C128.938 25.7195 128.25 32.2384 126.029 35.3068Z" fill="black"/>
<path d="M47.6991 177.67H20.9092V187.468H47.6991V177.67Z" fill="black"/>
<path d="M47.6991 209.677H20.9092V219.475H47.6991V209.677Z" fill="black"/>
<path d="M211.052 387.347H11.108C8.163 387.344 5.33955 386.173 3.25711 384.091C1.17467 382.009 0.00330152 379.186 0 376.242V11.1044C0.00330152 8.16033 1.17467 5.33781 3.25711 3.25605C5.33955 1.17429 8.163 0.00330044 11.108 0H211.052C213.997 0.00331424 216.821 1.1743 218.903 3.25606C220.986 5.33781 222.157 8.16033 222.16 11.1044V376.242C222.157 379.186 220.986 382.009 218.903 384.091C216.821 386.172 213.997 387.344 211.052 387.347ZM11.108 1.3064C8.50948 1.30934 6.01822 2.34256 4.18078 4.1794C2.34334 6.01624 1.30977 8.50669 1.30683 11.1044V376.242C1.30977 378.84 2.34334 381.331 4.18078 383.167C6.01822 385.004 8.50948 386.037 11.108 386.04H211.052C213.651 386.037 216.142 385.004 217.979 383.167C219.817 381.331 220.85 378.84 220.853 376.242V11.1044C220.85 8.50669 219.817 6.01624 217.979 4.1794C216.142 2.34256 213.651 1.30934 211.052 1.3064H11.108Z" fill="#3F3D56"/>
<path d="M221.507 75.4135H0.653442V76.7198H221.507V75.4135Z" fill="#3F3D56"/>
<path d="M221.507 153.818H0.653442V155.125H221.507V153.818Z" fill="#3F3D56"/>
<path d="M221.507 232.222H0.653442V233.529H221.507V232.222Z" fill="#3F3D56"/>
<path d="M221.507 310.627H0.653442V311.933H221.507V310.627Z" fill="#3F3D56"/>
<path d="M45.7388 233.845H23.5228C22.6566 233.844 21.8262 233.5 21.2137 232.887C20.6013 232.275 20.2567 231.445 20.2557 230.579V167.219C20.2567 166.353 20.6013 165.523 21.2137 164.911C21.8262 164.298 22.6566 163.954 23.5228 163.953H45.7388C46.605 163.954 47.4354 164.298 48.0479 164.911C48.6604 165.523 49.0049 166.353 49.0059 167.219V230.579C49.0049 231.445 48.6604 232.275 48.0479 232.887C47.4354 233.5 46.605 233.844 45.7388 233.845ZM23.5228 165.259C23.0031 165.26 22.5048 165.467 22.1373 165.834C21.7699 166.201 21.5631 166.699 21.5626 167.219V230.579C21.5631 231.099 21.7699 231.597 22.1373 231.964C22.5048 232.332 23.0031 232.538 23.5228 232.539H45.7388C46.2585 232.538 46.7568 232.332 47.1243 231.964C47.4918 231.597 47.6985 231.099 47.6991 230.579V167.219C47.6985 166.699 47.4918 166.201 47.1243 165.834C46.7568 165.467 46.2585 165.26 45.7388 165.259H23.5228Z" fill="#3F3D56"/>
<path d="M88.8641 177.67H62.0742V187.468H88.8641V177.67Z" fill="black"/>
<path d="M88.8641 209.677H62.0742V219.475H88.8641V209.677Z" fill="black"/>
<path d="M86.9039 233.845H64.6878C63.8217 233.844 62.9913 233.5 62.3788 232.887C61.7663 232.275 61.4218 231.445 61.4208 230.579V167.219C61.4218 166.353 61.7663 165.523 62.3788 164.911C62.9913 164.298 63.8217 163.954 64.6878 163.953H86.9039C87.77 163.954 88.6004 164.298 89.2129 164.911C89.8254 165.523 90.1699 166.353 90.1709 167.219V230.579C90.1699 231.445 89.8254 232.275 89.2129 232.887C88.6004 233.5 87.77 233.844 86.9039 233.845ZM64.6878 165.259C64.1681 165.26 63.6699 165.467 63.3024 165.834C62.9349 166.201 62.7282 166.699 62.7276 167.219V230.579C62.7282 231.099 62.9349 231.597 63.3024 231.964C63.6699 232.332 64.1681 232.538 64.6878 232.539H86.9039C87.4236 232.538 87.9218 232.332 88.2893 231.964C88.6568 231.597 88.8635 231.099 88.8641 230.579V167.219C88.8635 166.699 88.6568 166.201 88.2893 165.834C87.9218 165.467 87.4236 165.26 86.9039 165.259H64.6878Z" fill="#3F3D56"/>
<path d="M154.205 98.6331H127.415V108.431H154.205V98.6331Z" fill="black"/>
<path d="M154.205 130.64H127.415V140.438H154.205V130.64Z" fill="black"/>
<path d="M152.245 154.808H130.029C129.163 154.807 128.333 154.463 127.72 153.85C127.108 153.238 126.763 152.408 126.762 151.542V88.1818C126.763 87.3159 127.108 86.4857 127.72 85.8735C128.333 85.2612 129.163 84.9168 130.029 84.9158H152.245C153.111 84.9168 153.942 85.2612 154.554 85.8735C155.167 86.4857 155.511 87.3159 155.512 88.1818V151.542C155.511 152.408 155.167 153.238 154.554 153.85C153.942 154.463 153.111 154.807 152.245 154.808ZM130.029 86.2222C129.509 86.2227 129.011 86.4294 128.644 86.7968C128.276 87.1641 128.069 87.6622 128.069 88.1818V151.542C128.069 152.062 128.276 152.56 128.644 152.927C129.011 153.294 129.509 153.501 130.029 153.502H152.245C152.765 153.501 153.263 153.294 153.631 152.927C153.998 152.56 154.205 152.062 154.205 151.542V88.1818C154.205 87.6622 153.998 87.1641 153.631 86.7967C153.263 86.4294 152.765 86.2227 152.245 86.2222H130.029Z" fill="#3F3D56"/>
<path d="M195.37 98.6331H168.58V108.431H195.37V98.6331Z" fill="black"/>
<path d="M195.37 130.64H168.58V140.438H195.37V130.64Z" fill="black"/>
<path d="M193.41 154.808H171.194C170.328 154.807 169.497 154.463 168.885 153.85C168.273 153.238 167.928 152.408 167.927 151.542V88.1818C167.928 87.3159 168.273 86.4857 168.885 85.8735C169.497 85.2612 170.328 84.9168 171.194 84.9158H193.41C194.276 84.9168 195.107 85.2612 195.719 85.8735C196.332 86.4857 196.676 87.3159 196.677 88.1818V151.542C196.676 152.408 196.332 153.238 195.719 153.85C195.107 154.463 194.276 154.807 193.41 154.808ZM171.194 86.2222C170.674 86.2227 170.176 86.4294 169.809 86.7967C169.441 87.1641 169.234 87.6622 169.234 88.1818V151.542C169.234 152.062 169.441 152.56 169.809 152.927C170.176 153.294 170.674 153.501 171.194 153.502H193.41C193.93 153.501 194.428 153.294 194.796 152.927C195.163 152.56 195.37 152.062 195.37 151.542V88.1818C195.37 87.6622 195.163 87.1641 194.796 86.7967C194.428 86.4294 193.93 86.2227 193.41 86.2222H171.194Z" fill="#3F3D56"/>
<path d="M121.724 171.819L96.6462 181.239L100.094 190.411L125.172 180.99L121.724 171.819Z" fill="black"/>
<path d="M132.986 201.78L107.908 211.2L111.356 220.372L136.434 210.952L132.986 201.78Z" fill="black"/>
<path d="M117.708 233.115C117.044 233.114 116.396 232.911 115.85 232.532C115.304 232.154 114.886 231.618 114.652 230.996L92.3572 171.685C92.0535 170.875 92.0839 169.976 92.4418 169.188C92.7997 168.399 93.4557 167.785 94.2661 167.48L115.063 159.668C115.464 159.517 115.892 159.446 116.32 159.461C116.749 159.475 117.171 159.573 117.562 159.751C117.952 159.928 118.304 160.18 118.598 160.493C118.891 160.807 119.119 161.175 119.27 161.576L141.565 220.887C141.868 221.698 141.838 222.596 141.48 223.385C141.122 224.173 140.466 224.787 139.656 225.093H139.656L118.859 232.905C118.491 233.044 118.102 233.115 117.708 233.115ZM116.213 160.764C115.977 160.764 115.743 160.807 115.522 160.89L94.7259 168.702C94.2397 168.886 93.846 169.254 93.6313 169.728C93.4165 170.201 93.3983 170.74 93.5805 171.226L115.875 230.537C115.966 230.778 116.103 230.999 116.279 231.187C116.454 231.375 116.666 231.526 116.9 231.632C117.134 231.739 117.388 231.798 117.645 231.806C117.902 231.815 118.159 231.773 118.4 231.682L139.196 223.87C139.682 223.687 140.076 223.318 140.291 222.845C140.505 222.372 140.523 221.833 140.341 221.346L118.047 162.035C117.906 161.663 117.656 161.341 117.328 161.114C117 160.887 116.611 160.765 116.213 160.764Z" fill="#3F3D56"/>
<path d="M31.5532 94.0879L6.47534 103.508L9.92296 112.68L35.0008 103.26L31.5532 94.0879Z" fill="black"/>
<path d="M42.8154 124.049L17.7375 133.47L21.1852 142.641L46.263 133.221L42.8154 124.049Z" fill="black"/>
<path d="M27.5374 155.385C26.873 155.383 26.2247 155.18 25.6787 154.801C25.1328 154.423 24.7149 153.887 24.4808 153.266L2.18625 93.9547C1.8826 93.1439 1.91305 92.2457 2.27091 91.4572C2.62877 90.6688 3.28483 90.0544 4.0952 89.7488L24.8916 81.9369C25.2932 81.786 25.7207 81.7156 26.1495 81.7298C26.5783 81.7441 27.0001 81.8426 27.3909 82.0198C27.7816 82.1971 28.1335 82.4495 28.4266 82.7628C28.7197 83.076 28.9482 83.4439 29.0991 83.8454L51.3937 143.156C51.6973 143.967 51.6669 144.865 51.309 145.654C50.9512 146.442 50.2951 147.057 49.4847 147.362H49.4846L28.6883 155.174C28.3205 155.313 27.9306 155.384 27.5374 155.385ZM26.042 83.0334C25.806 83.0337 25.5721 83.0765 25.3513 83.1597L4.55503 90.9716C4.06876 91.155 3.67508 91.5237 3.46035 91.9968C3.24561 92.4699 3.22735 93.0089 3.40957 93.4955L25.7042 152.806C25.7947 153.047 25.9318 153.268 26.1077 153.456C26.2835 153.644 26.4947 153.795 26.7291 153.902C26.9636 154.008 27.2167 154.067 27.4739 154.076C27.7312 154.084 27.9877 154.042 28.2286 153.951L49.0249 146.14C49.5112 145.956 49.9049 145.587 50.1196 145.114C50.3343 144.641 50.3526 144.102 50.1704 143.616L27.8758 84.3047C27.7353 83.9318 27.4846 83.6105 27.1571 83.3834C26.8295 83.1563 26.4406 83.0343 26.042 83.0334Z" fill="#3F3D56"/>
<path d="M409.69 163.3C420.877 163.3 429.945 154.234 429.945 143.051C429.945 131.867 420.877 122.801 409.69 122.801C398.503 122.801 389.434 131.867 389.434 143.051C389.434 154.234 398.503 163.3 409.69 163.3Z" fill="#2F2E41"/>
<path d="M319.702 235.459C320.659 235.83 321.685 235.986 322.709 235.917C323.733 235.848 324.729 235.556 325.628 235.06C326.527 234.565 327.306 233.878 327.91 233.049C328.515 232.22 328.93 231.269 329.127 230.262L384.822 195.134L374.685 183.725L323.102 221.866C321.388 221.647 319.654 222.065 318.227 223.039C316.801 224.014 315.781 225.477 315.362 227.153C314.943 228.828 315.153 230.599 315.953 232.13C316.753 233.661 318.087 234.846 319.702 235.459Z" fill="#FFB8B8"/>
<path d="M373.194 204.474C372.701 204.474 372.216 204.351 371.783 204.116C371.35 203.88 370.983 203.54 370.716 203.126L364.266 193.106C363.859 192.474 363.71 191.71 363.85 190.971C363.989 190.232 364.407 189.574 365.016 189.134L386.598 173.54C387.646 172.783 388.834 172.244 390.093 171.954C391.353 171.665 392.657 171.631 393.93 171.854C395.203 172.077 396.418 172.554 397.503 173.255C398.589 173.956 399.522 174.867 400.249 175.935C400.976 177.003 401.481 178.206 401.735 179.473C401.988 180.739 401.985 182.044 401.725 183.309C401.466 184.575 400.955 185.775 400.223 186.84C399.491 187.905 398.553 188.812 397.464 189.507L374.772 204.012C374.301 204.314 373.753 204.474 373.194 204.474Z" fill="#2F2E41"/>
<path d="M382.83 379.41L374.82 379.41L371.009 348.521L382.832 348.522L382.83 379.41Z" fill="#FFB8B8"/>
<path d="M369.098 377.122H384.547V386.846H359.371C359.371 385.569 359.622 384.304 360.111 383.125C360.6 381.945 361.316 380.873 362.22 379.97C363.123 379.067 364.195 378.351 365.376 377.862C366.556 377.373 367.821 377.122 369.098 377.122Z" fill="#2F2E41"/>
<path d="M420.228 373.423L412.515 375.588L400.494 346.879L411.877 343.684L420.228 373.423Z" fill="#FFB8B8"/>
<path d="M406.388 374.931L421.262 370.757L423.891 380.119L399.651 386.921C399.306 385.692 399.207 384.406 399.358 383.138C399.51 381.87 399.91 380.645 400.535 379.531C401.161 378.418 402 377.438 403.004 376.649C404.008 375.86 405.158 375.276 406.388 374.931Z" fill="#2F2E41"/>
<path d="M441.811 326.02L410.712 289.329L429.583 266.439C429.86 266.103 430.208 265.833 430.601 265.648C430.995 265.463 431.425 265.368 431.86 265.369C432.296 265.37 432.725 265.468 433.118 265.655C433.51 265.843 433.857 266.115 434.132 266.452L462.687 301.486L441.811 326.02Z" fill="black"/>
<path d="M411.966 289.602C412.425 288.778 412.993 288.019 413.656 287.347L431.669 269.092C432.375 268.373 433.326 267.946 434.332 267.896C436.39 267.799 439.766 268.007 440.707 270.264L416.388 290.155L411.966 289.602Z" fill="#F2F2F2"/>
<path d="M442.892 333.784C441.505 333.742 440.157 333.316 438.999 332.551L438.913 332.463L410.43 288.915L415.156 288.458L440.487 268.706C440.807 268.457 441.175 268.277 441.568 268.176C441.961 268.076 442.37 268.058 442.77 268.123C443.171 268.189 443.553 268.336 443.893 268.557C444.234 268.777 444.525 269.065 444.749 269.404L472.438 311.298C472.863 311.945 473.016 312.733 472.865 313.492C472.713 314.251 472.27 314.921 471.629 315.355L444.835 333.416C444.217 333.662 443.557 333.787 442.892 333.784Z" fill="black"/>
<path d="M432.818 303.995C432.55 303.995 432.286 303.93 432.05 303.804C431.813 303.678 431.611 303.496 431.461 303.274L428.189 298.416C427.947 298.056 427.858 297.615 427.941 297.19C428.024 296.766 428.273 296.391 428.632 296.148L445.419 284.851C445.778 284.61 446.219 284.521 446.644 284.604C447.069 284.687 447.444 284.935 447.686 285.293L450.958 290.152C451.2 290.512 451.288 290.952 451.205 291.377C451.122 291.802 450.874 292.177 450.515 292.419L433.728 303.717C433.459 303.898 433.143 303.995 432.818 303.995Z" fill="#3F3D56"/>
<path d="M369.742 374.739C368.848 374.736 367.988 374.399 367.331 373.794C366.673 373.189 366.265 372.36 366.188 371.47C364.762 355.281 357.611 273.686 356.826 257.208C355.954 238.9 371.196 209.936 371.35 209.646L371.456 209.447L378.989 210.387V211.263L386.16 212.107L400.037 213.449L404.01 261.994L405.767 294.917L422.272 362.159C422.459 362.904 422.345 363.692 421.956 364.354C421.566 365.016 420.932 365.497 420.19 365.696L405.826 369.612C405.079 369.812 404.283 369.711 403.61 369.332C402.936 368.952 402.439 368.323 402.224 367.581L388.7 320.088C388.634 319.859 388.487 319.661 388.286 319.532C388.084 319.403 387.843 319.352 387.607 319.389C387.371 319.425 387.156 319.547 387.003 319.731C386.85 319.915 386.77 320.148 386.778 320.387L388.208 366.696C388.215 367.171 388.125 367.643 387.943 368.083C387.762 368.522 387.492 368.92 387.151 369.251C383.859 372.342 375.159 373.993 370.266 374.701C370.092 374.726 369.917 374.739 369.742 374.739Z" fill="#2F2E41"/>
<path d="M412.904 170.741C410.624 168.366 395.606 171.63 392.271 175.13L369.444 212.431L407.197 219.453L415.538 172.058L412.904 170.741Z" fill="black"/>
<path d="M403.008 265.512C402.195 265.512 401.387 265.378 400.618 265.114C398.425 264.362 395.737 263.575 392.629 262.776C379.016 259.276 374.209 248.073 378.344 229.476L378.448 229.004C382.33 211.363 389.647 194.658 399.982 179.842L401.583 177.543C403.516 174.769 406.221 172.625 409.363 171.376C412.505 170.127 415.945 169.828 419.255 170.517C425.38 171.78 428.669 173.611 429.03 175.957C429.739 180.562 416.057 236.228 410.142 259.947C409.745 261.538 408.828 262.95 407.535 263.959C406.242 264.967 404.648 265.514 403.008 265.512L403.008 265.512Z" fill="#2F2E41"/>
<path d="M356.112 258.366C355.756 258.366 355.403 258.31 355.063 258.202L350.651 256.791C350.195 256.645 349.774 256.406 349.416 256.088C349.058 255.77 348.77 255.381 348.571 254.946C348.371 254.51 348.265 254.038 348.259 253.559C348.252 253.081 348.346 252.606 348.534 252.165L371.946 197.229C376.432 186.749 384.276 178.057 394.243 172.52H394.243C394.388 172.441 394.547 172.392 394.711 172.376C394.876 172.361 395.041 172.38 395.198 172.431C395.342 172.477 395.475 172.552 395.588 172.653C395.701 172.753 395.792 172.876 395.855 173.013C398.608 179.069 383.621 207.727 371.579 230.753C365.413 242.544 360.087 252.727 359.481 255.631C359.319 256.404 358.896 257.098 358.283 257.596C357.669 258.094 356.903 258.366 356.112 258.366Z" fill="#2F2E41"/>
<path d="M428.546 270.884C429.369 270.27 430.047 269.484 430.532 268.58C431.018 267.676 431.299 266.677 431.356 265.653C431.414 264.628 431.246 263.604 430.864 262.652C430.483 261.699 429.897 260.842 429.148 260.141L428.962 194.309L413.908 196.834L418.832 260.783C417.736 262.119 417.169 263.809 417.237 265.535C417.305 267.261 418.004 268.902 419.201 270.147C420.399 271.392 422.011 272.155 423.734 272.29C425.456 272.426 427.169 271.926 428.546 270.884Z" fill="#FFB8B8"/>
<path d="M416.289 210.641C415.542 210.641 414.824 210.357 414.28 209.848C413.735 209.338 413.405 208.64 413.356 207.896L411.604 181.333C411.439 178.777 412.294 176.26 413.983 174.334C415.671 172.407 418.055 171.229 420.611 171.058C421.924 170.971 423.24 171.154 424.48 171.594C425.719 172.033 426.856 172.722 427.82 173.616C428.784 174.511 429.555 175.592 430.087 176.795C430.618 177.998 430.898 179.297 430.91 180.611L431.148 207.536C431.153 208.314 430.851 209.062 430.306 209.618C429.762 210.173 429.02 210.491 428.242 210.502L416.324 210.641L416.289 210.641Z" fill="#2F2E41"/>
<path d="M405.517 164.33C414.38 164.33 421.566 157.147 421.566 148.286C421.566 139.426 414.38 132.243 405.517 132.243C396.654 132.243 389.469 139.426 389.469 148.286C389.469 157.147 396.654 164.33 405.517 164.33Z" fill="#FFB8B8"/>
<path d="M418.861 159.512C420.058 155.704 421.157 151.215 418.788 148.001C417.081 145.686 414.017 144.79 411.143 144.662C408.269 144.533 405.386 145.02 402.518 144.792C399.65 144.564 396.619 143.433 395.162 140.953C393.273 137.737 394.873 133.308 397.91 131.142C400.947 128.976 404.96 128.674 408.656 129.178C413.333 129.734 417.73 131.7 421.262 134.815C424.697 137.985 426.937 142.555 426.837 147.227C426.737 151.9 424.116 156.554 419.938 158.652" fill="#2F2E41"/>
<path d="M414.859 124.457C411.017 123.274 409.245 118.196 410.963 114.563C412.682 110.93 417.073 109.027 421.061 109.533C425.049 110.039 428.563 112.597 430.987 115.803C433.411 119.009 434.873 122.831 436.092 126.66C437.31 130.49 438.324 134.402 439.988 138.06C442.629 143.681 446.704 148.508 451.802 152.055C456.9 155.603 462.843 157.747 469.032 158.272C471.73 158.468 474.53 158.328 476.989 157.2C479.448 156.073 481.51 153.8 481.785 151.11C483.185 160.666 477.624 170.821 468.817 174.792C460.011 178.763 448.715 176.208 442.476 168.835C436.379 161.629 435.435 151.456 435.582 142.019C435.622 139.432 435.717 136.795 435.002 134.308C434.287 131.821 432.595 129.455 430.129 128.665C428.14 128.028 425.986 128.488 423.947 128.939C421.907 129.391 419.742 129.826 417.768 129.145C415.793 128.464 414.203 126.219 414.999 124.289" fill="#2F2E41"/>
<path d="M478.352 388H305.851C305.678 388 305.512 387.931 305.389 387.809C305.267 387.686 305.198 387.52 305.198 387.347C305.198 387.174 305.267 387.007 305.389 386.885C305.512 386.762 305.678 386.694 305.851 386.694H478.352C478.525 386.694 478.692 386.762 478.814 386.885C478.937 387.007 479.005 387.174 479.005 387.347C479.005 387.52 478.937 387.686 478.814 387.809C478.692 387.931 478.525 388 478.352 388Z" fill="#CCCCCC"/>
</g>
<defs>
<clipPath id="clip0">
<rect width="482" height="388" fill="white"/>
</clipPath>
</defs>
</svg>
